<?xml version="1.0" encoding="utf-8"?>
<!-- Generator: Adobe Illustrator 21.0.0, SVG Export Plug-In . SVG Version: 6.00 Build 0)  -->
<svg version="1.1" id="图层_1" xmlns="http://www.w3.org/2000/svg" xmlns:xlink="http://www.w3.org/1999/xlink" x="0px" y="0px"
	 viewBox="0 0 32 32" style="enable-background:new 0 0 32 32;" xml:space="preserve">
<g>
	<path class="st0" d="M21.8,11.6"/>
	<path class="st0" d="M16.9,29.2H6.4c-0.5,0-0.9-0.4-0.9-0.9V4.9C5.5,4.4,5.9,4,6.4,4h18.4c0.5,0,0.9,0.4,0.9,0.9v8.4
		c0.6,0.1,1.2,0.2,1.7,0.3V4c0-1-0.8-1.8-1.7-1.8H5.5C4.6,2.2,3.8,3,3.8,4v25.2c0,1,0.8,1.8,1.7,1.8h13.2
		C18,30.5,17.4,29.9,16.9,29.2L16.9,29.2z M16.9,29.2"/>
	<path class="st0" d="M21.3,10.8H10.7c-0.2,0-0.4-0.1-0.5-0.2C10,10.4,10,10.2,10,10c0-0.5,0.3-0.9,0.7-0.9h10.6
		c0.4,0,0.7,0.4,0.7,0.9c0,0.2-0.1,0.5-0.2,0.6C21.7,10.7,21.5,10.8,21.3,10.8L21.3,10.8z"/>
	<path class="st0" d="M21.3,17.6H10.7c-0.2,0-0.4-0.1-0.5-0.2C10,17.2,10,17,10,16.7c0-0.5,0.3-0.9,0.7-0.9h10.6
		c0.4,0,0.7,0.4,0.7,0.9c0,0.2-0.1,0.5-0.2,0.6C21.7,17.5,21.5,17.6,21.3,17.6L21.3,17.6z"/>
	<path class="st0" d="M26,25.4H11.2c-0.3,0-0.5-0.1-0.7-0.2c-0.2-0.2-0.3-0.4-0.3-0.6c0-0.5,0.5-0.9,1-0.9H26c0.6,0,1,0.4,1,0.9
		c0,0.2-0.1,0.5-0.3,0.6C26.5,25.3,26.2,25.4,26,25.4L26,25.4z"/>
	<path class="st0" d="M24,28c-0.2,0-0.5-0.1-0.6-0.3c-0.2-0.2-0.3-0.4-0.3-0.6c0-0.2,0.1-0.4,0.3-0.6l2.3-2.2l-2.6-2.4
		c-0.2-0.2-0.3-0.4-0.3-0.6c0-0.2,0.1-0.4,0.3-0.6c0.4-0.3,0.9-0.3,1.3,0l3.2,3c0.2,0.2,0.3,0.4,0.3,0.6c0,0.2-0.1,0.4-0.3,0.6
		l-3,2.8C24.5,27.9,24.3,28,24,28L24,28z M24,28"/>
</g>
</svg>
