<?xml version="1.0" encoding="utf-8"?>
<!-- Generator: Adobe Illustrator 21.0.0, SVG Export Plug-In . SVG Version: 6.00 Build 0)  -->
<svg version="1.1" id="图层_1" xmlns="http://www.w3.org/2000/svg" xmlns:xlink="http://www.w3.org/1999/xlink" x="0px" y="0px"
	 viewBox="0 0 32 32" style="enable-background:new 0 0 32 32;" xml:space="preserve">

<g>
	<path class="st0" d="M15.5,14.7H6.8c-0.2,0-0.4,0.2-0.4,0.5V16c0,0.2,0.2,0.5,0.4,0.5h7C14.3,15.8,14.8,15.1,15.5,14.7L15.5,14.7z
		 M12.3,20.1H6.8c-0.2,0-0.4,0.2-0.4,0.5v0.9c0,0.2,0.2,0.5,0.4,0.5H12c0-0.3,0-0.7,0.1-1c0,0,0.1-0.6,0.1-0.2
		C12.2,20.4,12.2,20.3,12.3,20.1L12.3,20.1z M18.8,10.6V9.7c0-0.2-0.2-0.5-0.4-0.5H6.8c-0.2,0-0.4,0.2-0.4,0.5v0.9
		c0,0.2,0.2,0.5,0.4,0.5h11.6C18.6,11.1,18.8,10.9,18.8,10.6L18.8,10.6z M18.8,10.6"/>
	<path class="st0" d="M13.9,28.2H3.4c-0.5,0-0.9-0.4-0.9-0.9V3.9C2.5,3.4,2.9,3,3.4,3h18.4c0.5,0,0.9,0.4,0.9,0.9v8.4
		c0.6,0.1,1.2,0.2,1.7,0.3V3c0-1-0.8-1.8-1.7-1.8H2.5C1.6,1.2,0.8,2,0.8,3v25.2c0,1,0.8,1.8,1.7,1.8h13.2
		C15,29.5,14.4,28.9,13.9,28.2L13.9,28.2z M13.9,28.2"/>
	<path class="st0" d="M22.4,13.9c-4.6,0-8.4,3.7-8.4,8.4c0,4.7,3.7,8.4,8.4,8.4c4.7,0,8.4-3.7,8.4-8.4C30.9,17.6,27,13.9,22.4,13.9
		L22.4,13.9z M22.4,29.3c-3.8,0-7-3.1-7-7c0-3.8,3.1-7,7-7c3.8,0,7,3.1,7,7C29.3,26.2,26.2,29.3,22.4,29.3L22.4,29.3z M22.4,29.3"/>
	<g>
		<path class="st0" d="M26,17.6l-2.7,4.6h2.1v1H23v1.4h2.5v1H23v2h-1.3v-2h-2.6v-1h2.6v-1.4h-2.6v-1h2.2l-2.7-4.6h1.4
			c1.2,2.3,2,3.7,2.3,4.3h0c0.1-0.3,0.3-0.8,0.7-1.5l1.5-2.8H26z M26,17.6"/>
	</g>
</g>
</svg>
