<?xml version="1.0" encoding="utf-8"?>
<!-- Generator: Adobe Illustrator 21.0.0, SVG Export Plug-In . SVG Version: 6.00 Build 0)  -->
<svg version="1.1" id="图层_1" xmlns="http://www.w3.org/2000/svg" xmlns:xlink="http://www.w3.org/1999/xlink" x="0px" y="0px"
	 viewBox="0 0 32 32" style="enable-background:new 0 0 32 32;" xml:space="preserve">
<g>
	<g>
		<path class="st0" d="M30,16.5c0-0.4-0.4-0.8-0.8-0.8c-0.4,0-0.8,0.3-0.8,0.8h0v7.9c0,1-0.8,1.8-1.8,1.8H5.4c-1,0-1.8-0.8-1.8-1.8
			v-16c0-1,0.8-1.8,1.8-1.8h14.4v0l0,0c0.4,0,0.8-0.4,0.8-0.8c0-0.4-0.4-0.8-0.8-0.8c0,0,0,0,0,0H5.4C3.5,5,2,6.5,2,8.3v16
			c0,1.9,1.5,3.4,3.4,3.4h21.3c1.9,0,3.4-1.5,3.4-3.4L30,16.5L30,16.5z M30,16.5"/>
		<path class="st0" d="M17.5,17L17,21.8l0,0.1c0.1,0.3,0.2,0.5,0.5,0.6c0.2,0.1,0.5,0.2,0.8,0.1l0.1,0l4-2.7
			c0.2-0.1,0.4-0.2,0.5-0.5l5.7-9.5l0,0c0.1-0.1,0.1-0.1,0.1-0.2l1-1.6C30,7.8,30.1,7.4,30,7c-0.1-0.4-0.4-0.8-0.7-1l-2.5-1.5
			c-0.4-0.2-0.8-0.3-1.2-0.2c-0.4,0.1-0.8,0.4-1,0.7l-1,1.6c0,0.1-0.1,0.1-0.1,0.2l0,0l-5.7,9.5C17.6,16.5,17.5,16.7,17.5,17
			L17.5,17z M24.7,7.3l1-1.6c0-0.1,0.1-0.1,0.2-0.1c0.1,0,0.2,0,0.2,0l2.5,1.5c0.1,0,0.1,0.1,0.1,0.2c0,0.1,0,0.2,0,0.2l-1,1.6
			c0,0.1-0.1,0.1-0.2,0.1l-2.8-1.7C24.6,7.5,24.6,7.4,24.7,7.3L24.7,7.3z M18.9,16.9l5-8.3C24,8.7,24,8.8,24.1,8.9l2.5,1.5
			c0.1,0,0.2,0.1,0.2,0.1l-5,8.3L18.4,21L18.9,16.9z M16,11C16,11,15.9,11,16,11L14.4,11c0,0-0.1,0-0.1,0.1l-1.7,3.1
			c-0.4,0.7-0.6,1.2-0.7,1.5c-0.3-0.7-1.2-2.3-2.4-4.5c0,0-0.1-0.1-0.1-0.1H7.9c0,0-0.1,0-0.1,0.1c0,0,0,0.1,0,0.1l2.8,4.8H8.4
			c-0.1,0-0.1,0-0.1,0.1v1.1c0,0.1,0,0.1,0.1,0.1h2.7v1.3H8.4c-0.1,0-0.1,0-0.1,0.1v1.1c0,0.1,0,0.1,0.1,0.1h2.7V22
			c0,0.1,0,0.1,0.1,0.1h1.4c0.1,0,0.1,0,0.1-0.1v-2.1h2.6c0.1,0,0.1,0,0.1-0.1v-1.1c0-0.1,0-0.1-0.1-0.1h-2.6v-1.3h2.6
			c0.1,0,0.1,0,0.1-0.1v-1.1c0-0.1,0-0.1-0.1-0.1h-2.1L16,11C16,11.1,16,11,16,11L16,11z M16,11"/>
	</g>
</g>
</svg>
